<svg version="1" xmlns="http://www.w3.org/2000/svg" width="682.667" height="682.667" viewBox="0 0 512.000000 512.000000"><path d="M79 256v256h355V0H79v256zM286.2 60C330.9 247.4 351 341.8 358 398.4c1.1 8.8 2 17.9 2 20.3v4.3h25v41h-95v-41H315.3l-.7-10.8c-.6-10.4-4.5-39.7-6.8-51.5l-1.1-5.7h-50.3c-47 0-50.3.1-50.8 1.7-1.4 4.6-6.7 44.5-7.2 54.7l-.7 11.5 12.4.3 12.4.3.3 20.2.2 20.3h-96l.2-20.3.3-20.2 12.8-.3 12.7-.3v-5.8c0-7 3-29.9 7.1-54.6 5.5-33.6 24.7-125.6 35.9-172.5 2.1-9.1 4.8-20.7 6-25.9 5.2-23.6 26.9-114.1 27.6-115.3.3-.4 12.5-.7 27.2-.6l26.7.3 2.7 11.5z"/><path d="M255.1 116.6c-1 4-12.3 55.2-20.5 93.2-6.3 28.9-20.6 100.1-20.6 102.4 0 1.7 1.9 1.8 42.5 1.8 33.7 0 42.5-.3 42.5-1.3 0-2-15.5-78.3-22.6-111.2-9.9-46.2-19.3-87.7-19.9-88.3-.2-.2-.8 1.3-1.4 3.4z"/></svg>